# xmcd
#
# Track frame offsets: 
#        150
#        16525
#        36357
#        51856
#        63796
#        75422
#        87884
#        102328
#        112815
#        127431
#        151127
#        164298
#        174754
#        187560
#        202976
#        213921
#        226154
#        238679
#        251695
#        266130
#        280810
#        294019
#        307910
#
# Disc length: 4334 seconds
#
# Revision: 0
# Processed by: cddbd v1.5.2PL0 Copyright (c) Steve Scherf et al.
# Submitted via: ExactAudioCopy v1.1
#
DISCID=1d10ec17
DTITLE=Various Artist - All-Time Country Favourites Jukebox Classics 
DTITLE=Disc 1
DYEAR=2011
DGENRE=Country
TTITLE0=Alabama - Jukebox in my mind
TTITLE1=Mavericks - Dance the night away
TTITLE2=Billy Ray Cyrus - Achy breaky heart
TTITLE3=Stonewall Jackson - Me and you and a dog named boo
TTITLE4=Slim Whitman - Happy anniversary
TTITLE5=Tom T Hall - The year that Clayton Delaney died
TTITLE6=Tex Ritter - I dreamed of a hillbilly heaven
TTITLE7=Roger Miller  - Engine engine #9
TTITLE8=Charley Pride - Burgers and fries
TTITLE9=John Denver - Sunshine on my shoulders
TTITLE10=George Jones - Tennessee whisky
TTITLE11=Ernest Tubbs - Two glasses Joe
TTITLE12=Roy Druskey - Red red wine
TTITLE13=Jim Reeves - Little old dime
TTITLE14=Porter Wagonner - Green, green grass of home
TTITLE15=Ray Price - Release me
TTITLE16=Johnny Cash - Lady came from Baltimore
TTITLE17=Merle Haggard - Swinging doors
TTITLE18=Lynn Anderson - Cry
TTITLE19=Bellamy Brothers - If I said you had a beautiful body ( would
TTITLE19=you hold it against me )
TTITLE20=Kenny Rogers - Ruby ( don't take your love to town )
TTITLE21=Kris Kristofferson, Johnny Cash, Waylon Jennings and Willie N
TTITLE21=elson - Highwayman
TTITLE22=Dolly Parton - Save the last dance for me 
EXTD=
EXTT0=
EXTT1=
EXTT2=
EXTT3=
EXTT4=
EXTT5=
EXTT6=
EXTT7=
EXTT8=
EXTT9=
EXTT10=
EXTT11=
EXTT12=
EXTT13=
EXTT14=
EXTT15=
EXTT16=
EXTT17=
EXTT18=
EXTT19=
EXTT20=
EXTT21=
EXTT22=
PLAYORDER=
